<?xml version="1.0" encoding="UTF-8"?>
<svg xmlns="http://www.w3.org/2000/svg" xmlns:xlink="http://www.w3.org/1999/xlink" viewBox="0 0 100 100" width="100px" height="100px">
<g id="surface5767515">
<path style=" stroke:none;fill-rule:nonzero;fill:rgb(94.509804%,73.725492%,9.803922%);fill-opacity:1;" d="M 78 13 C 77.449219 13 77 13.449219 77 14 C 77 14.550781 77.449219 15 78 15 C 78.550781 15 79 14.550781 79 14 C 79 13.449219 78.550781 13 78 13 Z M 78 13 "/>
<path style=" stroke:none;fill-rule:nonzero;fill:rgb(98.823529%,87.843138%,63.529414%);fill-opacity:1;" d="M 50 12 C 29.011719 12 12 29.011719 12 50 C 12 70.988281 29.011719 88 50 88 C 70.988281 88 88 70.988281 88 50 C 88 29.011719 70.988281 12 50 12 Z M 50 12 "/>
<path style=" stroke:none;fill-rule:nonzero;fill:rgb(94.509804%,73.725492%,9.803922%);fill-opacity:1;" d="M 84 12 C 81.789062 12 80 13.789062 80 16 C 80 18.210938 81.789062 20 84 20 C 86.210938 20 88 18.210938 88 16 C 88 13.789062 86.210938 12 84 12 Z M 84 12 "/>
<path style=" stroke:none;fill-rule:nonzero;fill:rgb(93.333334%,24.313726%,32.941177%);fill-opacity:1;" d="M 14 24 C 12.894531 24 12 24.894531 12 26 C 12 27.105469 12.894531 28 14 28 C 15.105469 28 16 27.105469 16 26 C 16 24.894531 15.105469 24 14 24 Z M 14 24 "/>
<path style=" stroke:none;fill-rule:nonzero;fill:rgb(98.431373%,80.392158%,34.901962%);fill-opacity:1;" d="M 78 75 C 76.894531 75 76 75.894531 76 77 C 76 78.105469 76.894531 79 78 79 C 79.105469 79 80 78.105469 80 77 C 80 75.894531 79.105469 75 78 75 Z M 17 74 C 14.789062 74 13 75.789062 13 78 C 13 80.210938 14.789062 82 17 82 C 19.210938 82 21 80.210938 21 78 C 21 75.789062 19.210938 74 17 74 Z M 17 74 "/>
<path style=" stroke:none;fill-rule:nonzero;fill:rgb(93.333334%,24.313726%,32.941177%);fill-opacity:1;" d="M 24 81 C 22.894531 81 22 81.894531 22 83 C 22 84.105469 22.894531 85 24 85 C 25.105469 85 26 84.105469 26 83 C 26 81.894531 25.105469 81 24 81 Z M 24 81 "/>
<path style=" stroke:none;fill-rule:nonzero;fill:rgb(100%,100%,100%);fill-opacity:1;" d="M 66.484375 76.035156 C 65.113281 76.035156 64 77.144531 64 78.515625 C 64 79.886719 65.113281 81 66.484375 81 C 67.855469 81 68.964844 79.886719 68.964844 78.515625 C 68.964844 77.144531 67.855469 76.035156 66.484375 76.035156 Z M 16 47 C 15.449219 47 15 47.449219 15 48 C 15 48.550781 15.449219 49 16 49 C 16.550781 49 17 48.550781 17 48 C 17 47.449219 16.550781 47 16 47 Z M 16 47 "/>
<path style=" stroke:none;fill-rule:nonzero;fill:rgb(94.509804%,73.725492%,9.803922%);fill-opacity:1;" d="M 86 30 C 85.449219 30 85 30.449219 85 31 C 85 31.550781 85.449219 32 86 32 C 86.550781 32 87 31.550781 87 31 C 87 30.449219 86.550781 30 86 30 Z M 86 30 "/>
<path style=" stroke:none;fill-rule:nonzero;fill:rgb(100%,100%,100%);fill-opacity:1;" d="M 80 64 C 78.894531 64 78 64.894531 78 66 C 78 67.105469 78.894531 68 80 68 C 81.105469 68 82 67.105469 82 66 C 82 64.894531 81.105469 64 80 64 Z M 80 64 "/>
<path style=" stroke:none;fill-rule:nonzero;fill:rgb(37.64706%,29.803923%,29.803923%);fill-opacity:1;" d="M 49.273438 23.015625 C 41.207031 23.398438 35 30.347656 35 38.425781 L 35 46 L 41 46 L 41 38.308594 C 41 33.515625 44.617188 29.328125 49.402344 29.019531 C 54.644531 28.679688 59 32.832031 59 38 C 59 39.65625 60.34375 41 62 41 C 63.65625 41 65 39.65625 65 38 C 65 29.476562 57.890625 22.609375 49.273438 23.015625 Z M 49.273438 23.015625 "/>
<path style=" stroke:none;fill-rule:nonzero;fill:rgb(27.843139%,16.862746%,16.078432%);fill-opacity:1;" d="M 50 24.398438 C 57.5 24.398438 63.601562 30.5 63.601562 38 C 63.601562 38.882812 62.882812 39.601562 62 39.601562 C 61.117188 39.601562 60.398438 38.882812 60.398438 38 C 60.398438 32.265625 55.734375 27.601562 50 27.601562 C 49.773438 27.601562 49.542969 27.605469 49.308594 27.621094 C 43.863281 27.976562 39.597656 32.667969 39.597656 38.308594 L 39.597656 44.601562 L 36.398438 44.601562 L 36.398438 38.425781 C 36.398438 30.910156 42.082031 24.757812 49.339844 24.414062 C 49.5625 24.40625 49.78125 24.398438 50 24.398438 M 50 23 C 49.757812 23 49.519531 23.007812 49.273438 23.015625 C 41.207031 23.398438 35 30.347656 35 38.425781 L 35 46 L 41 46 L 41 38.308594 C 41 33.515625 44.617188 29.328125 49.402344 29.019531 C 49.601562 29.007812 49.800781 29 50 29 C 54.972656 29 59 33.027344 59 38 C 59 39.65625 60.34375 41 62 41 C 63.65625 41 65 39.65625 65 38 C 65 29.714844 58.285156 23 50 23 Z M 50 23 "/>
<path style=" stroke:none;fill-rule:nonzero;fill:rgb(64.313728%,49.803922%,47.843137%);fill-opacity:1;" d="M 60 72 L 40 72 C 34.476562 72 30 67.523438 30 62 L 30 48 C 30 45.789062 31.789062 44 34 44 L 66 44 C 68.210938 44 70 45.789062 70 48 L 70 62 C 70 67.523438 65.523438 72 60 72 Z M 60 72 "/>
<path style=" stroke:none;fill-rule:nonzero;fill:rgb(64.313728%,49.803922%,47.843137%);fill-opacity:1;" d="M 60 72 L 40 72 C 34.476562 72 30 67.523438 30 62 L 30 48 C 30 45.789062 31.789062 44 34 44 L 66 44 C 68.210938 44 70 45.789062 70 48 L 70 62 C 70 67.523438 65.523438 72 60 72 Z M 60 72 "/>
<path style=" stroke:none;fill-rule:nonzero;fill:rgb(94.509804%,73.725492%,9.803922%);fill-opacity:1;" d="M 31 49 L 69 49 L 69 55.5 L 31 55.5 Z M 31 49 "/>
<path style=" stroke:none;fill-rule:nonzero;fill:rgb(37.64706%,29.803923%,29.803923%);fill-opacity:1;" d="M 52 61 C 52 59.894531 51.105469 59 50 59 C 48.894531 59 48 59.894531 48 61 C 48 61.652344 48.316406 62.226562 48.800781 62.59375 L 48 67 L 52 67 L 51.199219 62.59375 C 51.683594 62.226562 52 61.652344 52 61 Z M 52 61 "/>
<path style=" stroke:none;fill-rule:nonzero;fill:rgb(27.843139%,16.862746%,16.078432%);fill-opacity:1;" d="M 66 45.398438 C 67.433594 45.398438 68.601562 46.566406 68.601562 48 L 68.601562 62 C 68.601562 66.742188 64.742188 70.601562 60 70.601562 L 40 70.601562 C 35.257812 70.601562 31.398438 66.742188 31.398438 62 L 31.398438 48 C 31.398438 46.566406 32.566406 45.398438 34 45.398438 L 66 45.398438 M 66 44 L 34 44 C 31.789062 44 30 45.789062 30 48 L 30 62 C 30 67.523438 34.476562 72 40 72 L 60 72 C 65.523438 72 70 67.523438 70 62 L 70 48 C 70 45.789062 68.210938 44 66 44 Z M 66 44 "/>
<path style=" stroke:none;fill-rule:nonzero;fill:rgb(27.843139%,16.862746%,16.078432%);fill-opacity:1;" d="M 69 50 L 65.5 50 C 65.222656 50 65 49.777344 65 49.5 C 65 49.222656 65.222656 49 65.5 49 L 69 49 C 69.277344 49 69.5 49.222656 69.5 49.5 C 69.5 49.777344 69.277344 50 69 50 Z M 62.5 50 L 60.5 50 C 60.222656 50 60 49.777344 60 49.5 C 60 49.222656 60.222656 49 60.5 49 L 62.5 49 C 62.777344 49 63 49.222656 63 49.5 C 63 49.777344 62.777344 50 62.5 50 Z M 57.5 50 L 31 50 C 30.722656 50 30.5 49.777344 30.5 49.5 C 30.5 49.222656 30.722656 49 31 49 L 57.5 49 C 57.777344 49 58 49.222656 58 49.5 C 58 49.777344 57.777344 50 57.5 50 Z M 69 56 L 31 56 C 30.722656 56 30.5 55.777344 30.5 55.5 C 30.5 55.222656 30.722656 55 31 55 L 69 55 C 69.277344 55 69.5 55.222656 69.5 55.5 C 69.5 55.777344 69.277344 56 69 56 Z M 50 59.351562 C 50.910156 59.351562 51.648438 60.089844 51.648438 61 C 51.648438 61.515625 51.410156 61.996094 50.988281 62.3125 C 50.882812 62.394531 50.832031 62.523438 50.855469 62.65625 L 51.578125 66.648438 L 48.417969 66.648438 L 49.144531 62.65625 C 49.167969 62.523438 49.117188 62.394531 49.011719 62.3125 C 48.589844 61.996094 48.351562 61.515625 48.351562 61 C 48.351562 60.089844 49.089844 59.351562 50 59.351562 M 50 59 C 48.894531 59 48 59.894531 48 61 C 48 61.652344 48.316406 62.226562 48.800781 62.59375 L 48 67 L 52 67 L 51.199219 62.59375 C 51.683594 62.226562 52 61.652344 52 61 C 52 59.894531 51.105469 59 50 59 Z M 50 59 "/>
<path style=" stroke:none;fill-rule:nonzero;fill:rgb(27.843139%,16.862746%,16.078432%);fill-opacity:1;" d="M 30.859375 55.398438 L 35.066406 49.394531 L 35.351562 49.597656 L 31.148438 55.597656 Z M 30.859375 55.398438 "/>
<path style=" stroke:none;fill-rule:nonzero;fill:rgb(27.843139%,16.862746%,16.078432%);fill-opacity:1;" d="M 34.648438 55.398438 L 38.855469 49.394531 L 39.140625 49.597656 L 34.9375 55.597656 Z M 34.648438 55.398438 "/>
<path style=" stroke:none;fill-rule:nonzero;fill:rgb(27.843139%,16.862746%,16.078432%);fill-opacity:1;" d="M 38.359375 55.398438 L 42.566406 49.394531 L 42.851562 49.597656 L 38.648438 55.597656 Z M 38.359375 55.398438 "/>
<path style=" stroke:none;fill-rule:nonzero;fill:rgb(27.843139%,16.862746%,16.078432%);fill-opacity:1;" d="M 42.148438 55.398438 L 46.355469 49.394531 L 46.640625 49.597656 L 42.4375 55.597656 Z M 42.148438 55.398438 "/>
<path style=" stroke:none;fill-rule:nonzero;fill:rgb(27.843139%,16.862746%,16.078432%);fill-opacity:1;" d="M 45.859375 55.398438 L 50.066406 49.394531 L 50.351562 49.597656 L 46.148438 55.597656 Z M 45.859375 55.398438 "/>
<path style=" stroke:none;fill-rule:nonzero;fill:rgb(27.843139%,16.862746%,16.078432%);fill-opacity:1;" d="M 49.648438 55.398438 L 53.855469 49.394531 L 54.140625 49.597656 L 49.9375 55.601562 Z M 49.648438 55.398438 "/>
<path style=" stroke:none;fill-rule:nonzero;fill:rgb(27.843139%,16.862746%,16.078432%);fill-opacity:1;" d="M 53.359375 55.398438 L 57.5625 49.394531 L 57.851562 49.59375 L 53.644531 55.597656 Z M 53.359375 55.398438 "/>
<path style=" stroke:none;fill-rule:nonzero;fill:rgb(27.843139%,16.862746%,16.078432%);fill-opacity:1;" d="M 57.148438 55.398438 L 61.355469 49.394531 L 61.640625 49.59375 L 57.433594 55.597656 Z M 57.148438 55.398438 "/>
<path style=" stroke:none;fill-rule:nonzero;fill:rgb(27.843139%,16.862746%,16.078432%);fill-opacity:1;" d="M 60.859375 55.398438 L 65.0625 49.394531 L 65.351562 49.59375 L 61.144531 55.597656 Z M 60.859375 55.398438 "/>
<path style=" stroke:none;fill-rule:nonzero;fill:rgb(27.843139%,16.862746%,16.078432%);fill-opacity:1;" d="M 64.648438 55.398438 L 68.851562 49.394531 L 69.140625 49.59375 L 64.933594 55.597656 Z M 64.648438 55.398438 "/>
</g>
</svg>
